<?xml version="1.0" encoding="UTF-8" standalone="no"?>
<svg
   width="218.09608"
   height="258.68369"
   version="1.1"
   id="svg14"
   sodipodi:docname="logo-box.svg"
   inkscape:version="1.4.2 (ebf0e940, 2025-05-08)"
   xmlns:inkscape="http://www.inkscape.org/namespaces/inkscape"
   xmlns:sodipodi="http://sodipodi.sourceforge.net/DTD/sodipodi-0.dtd"
   xmlns="http://www.w3.org/2000/svg"
   xmlns:svg="http://www.w3.org/2000/svg">
  <defs
     id="defs14" />
  <sodipodi:namedview
     id="namedview14"
     pagecolor="#ffffff"
     bordercolor="#000000"
     borderopacity="0.25"
     inkscape:showpageshadow="2"
     inkscape:pageopacity="0.0"
     inkscape:pagecheckerboard="0"
     inkscape:deskcolor="#d1d1d1"
     inkscape:zoom="1.3174505"
     inkscape:cx="113.85627"
     inkscape:cy="289.57444"
     inkscape:window-width="1688"
     inkscape:window-height="1100"
     inkscape:window-x="2147"
     inkscape:window-y="86"
     inkscape:window-maximized="0"
     inkscape:current-layer="svg14" />
  <g
     id="g14"
     style="opacity:1"
     transform="translate(-289.74973,-20.346321)">
    <title
       id="title1">Layer 1</title>
    <g
       id="g13">
      <path
         d="m 392.83982,20.57961 c 0.23828,-0.02792 0.47656,-0.0512 0.71484,-0.06579 8.90234,-0.5413 17.83594,0.23086 26.54297,2.29482 15.75,3.86727 69.59375,27.35673 80.28516,37.58209 3.93359,3.75985 7.02734,9.14611 7.25391,14.90689 0.38672,9.72962 0.11328,19.6068 0.14062,29.35231 0.0469,22.70413 -0.0117,45.40826 -0.18359,68.11197 l -0.0742,31.65963 c -0.0117,6.0308 0.39453,12.54272 -0.44141,18.51082 -0.65625,4.69615 -2.65234,9.4178 -5.67187,12.91097 -2.5,2.89 -5.47656,5.28176 -8.61328,7.3178 -6.38281,4.13939 -13.43359,7.31362 -20.19531,10.68976 -16.16016,8.07061 -33.39844,16.70468 -50.50781,21.99647 -5.75391,1.78023 -11.37109,2.73618 -17.34766,3.02502 -8.65625,0.55718 -18.04687,-0.3741 -26.46367,-2.61162 -14.82227,-3.93958 -70.87617,-29.17299 -81.14414,-38.73709 -4.12031,-3.83801 -6.46094,-8.77576 -6.8457,-14.62098 -0.63711,-9.67779 0.0359,-19.74516 0.0645,-29.46308 l -0.0578,-57.51877 c 0.009,-12.9766 -0.05,-25.95277 -0.17734,-38.92853 -0.0887,-7.57989 -0.81172,-15.80766 0.0492,-23.32109 0.45664,-3.98556 2.18945,-7.53433 4.6668,-10.52172 2.7082,-3.26662 6.10898,-6.01032 9.60547,-8.23405 7.88164,-5.01299 16.82187,-8.72728 25.2168,-12.63677 14.42031,-6.71539 29.06328,-13.81714 44.24062,-18.35303 6.25664,-1.86977 12.46602,-2.91968 18.94297,-3.34603 z"
         fill="#fcfbfb"
         id="path2" />
      <path
         d="m 377.82889,134.76675 c -6.10508,-1.6657 -12.1543,-3.38031 -18.08516,-5.68011 -13.75937,-5.33485 -51.54297,-22.65773 -58.68359,-35.40276 -2.97227,-5.30559 -4.13516,-12.94734 -2.6332,-18.94679 1.63203,-6.51986 6.37344,-10.54638 11.64141,-13.73692 8.62266,-5.22199 18.17773,-9.20463 27.23555,-13.51288 27.66953,-13.16001 53.8875,-25.17142 84.60625,-15.99772 13.99219,4.17838 27.57422,10.69924 40.84766,16.96998 9.29297,4.39102 19.36719,8.81171 27.78516,14.90522 2.875,2.08244 5.91797,4.69908 7.63672,7.9983 2.67187,5.13254 2.46094,12.30864 0.93359,17.78519 -3.125,11.21935 -16.54687,18.69808 -25.63281,23.84985 -15.73437,8.92206 -39.87109,19.18463 -57.46875,22.11309 -6.96094,1.15909 -14,1.25816 -21.03125,1.49683 -0.10547,39.11997 0,78.23994 0.32031,117.35866 4.67578,-0.084 9.33594,-0.1718 14,-0.525 -0.47656,-35.78522 0.0664,-71.58215 -0.25391,-107.36905 23.41016,-2.08997 67.91406,-18.28511 87.08594,-32.9157 L 496,173.55234 c 0,10.26591 -0.71875,21.60439 0.24609,31.73821 0.0781,0.81592 0.28125,1.31083 0.71094,1.99048 l 0.81641,-1.63602 0.41406,0.11662 c 1.5,4.25768 0.90625,16.2453 -0.89453,20.5034 -1.42969,3.38449 -3.99219,5.83895 -6.78125,7.9402 -6.96484,5.24331 -15.26172,8.78329 -22.97656,12.56362 -13.46484,6.59844 -27.00781,13.01756 -40.92187,18.47488 -24.27734,9.52063 -42.81992,5.15762 -66.11992,-4.54735 -12.48047,-5.19816 -24.61602,-11.32385 -36.74844,-17.38057 -7.28984,-3.63905 -21.51836,-9.71458 -24.44805,-18.30893 -1.88086,-5.51793 -0.90586,-13.28675 -0.79141,-19.17167 1.98086,3.58931 4.18008,6.33176 7.27266,8.90033 4.29844,3.5705 9.40781,6.21598 14.20859,8.93042 18.00859,10.18273 37.90625,20.21874 57.49961,26.15341 -0.16836,-38.29109 -0.58008,-76.7799 0.34258,-115.0526 z"
         fill="#262949"
         id="path3" />
      <path
         d="m 409.04685,146.07262 c 23.41016,-2.08997 67.91406,-18.28511 87.08594,-32.9157 l -0.13281,60.3954 c 0,10.26591 -0.71875,21.60439 0.24609,31.73821 0.0781,0.81592 0.28125,1.31083 0.71094,1.99048 -0.62109,3.93081 -5.05859,7.44905 -7.875,9.59169 -17.32031,13.18726 -58.74219,31.80802 -79.78125,36.56896 -0.47656,-35.78522 0.0664,-71.58215 -0.25391,-107.36905 z"
         fill="#818189"
         id="path4" />
      <path
         d="m 395.23435,39.38917 c 6.76562,-0.22919 13.58203,0.1404 20.17969,1.84067 12.35547,3.18268 61.98437,24.48486 70.64844,32.23404 1.89062,1.68995 4.37109,4.36343 4.48047,7.15144 0.0898,2.45195 -1.17969,4.61673 -2.67578,6.35433 -11.23828,13.03386 -52.96484,28.52761 -69.28516,32.55623 -4.98828,1.23183 -9.94141,1.91608 -15.05469,2.13511 -6.17578,0.43053 -12.76953,0.33063 -18.87266,-0.82428 -18.36875,-3.47687 -57.71367,-20.24299 -71.84687,-31.91461 -2.35352,-1.94367 -5.18164,-4.73085 -5.48477,-8.08775 -0.20391,-2.25633 0.60234,-4.30742 1.98477,-5.9727 5.43008,-6.54076 56.51953,-29.20685 66.84336,-32.39196 6.25703,-1.93029 12.6,-2.73021 19.0832,-3.08053 z"
         fill="#9fd41f"
         id="path5" />
    </g>
  </g>
</svg>
