<svg width="800" height="600" xmlns="http://www.w3.org/2000/svg">

 <g>
  <title>Layer 1</title>
  <g>
   <path d="m-0.00002,-0.49999l799.99999,0l0,604l-799.99999,0l0,-604z" fill="rgb(38,41,73)" transform="translate(0)"/>
   <path d="m392.83982,20.57961c0.23828,-0.02792 0.47656,-0.0512 0.71484,-0.06579c8.90234,-0.5413 17.83594,0.23086 26.54297,2.29482c15.75,3.86727 69.59375,27.35673 80.28516,37.58209c3.93359,3.75985 7.02734,9.14611 7.25391,14.90689c0.38672,9.72962 0.11328,19.6068 0.14062,29.35231c0.04687,22.70413 -0.01172,45.40826 -0.18359,68.11197l-0.07422,31.65963c-0.01172,6.0308 0.39453,12.54272 -0.44141,18.51082c-0.65625,4.69615 -2.65234,9.4178 -5.67187,12.91097c-2.5,2.89 -5.47656,5.28176 -8.61328,7.3178c-6.38281,4.13939 -13.43359,7.31362 -20.19531,10.68976c-16.16016,8.07061 -33.39844,16.70468 -50.50781,21.99647c-5.75391,1.78023 -11.37109,2.73618 -17.34766,3.02502c-8.65625,0.55718 -18.04687,-0.3741 -26.46367,-2.61162c-14.82227,-3.93958 -70.87617,-29.17299 -81.14414,-38.73709c-4.12031,-3.83801 -6.46094,-8.77576 -6.8457,-14.62098c-0.63711,-9.67779 0.03594,-19.74516 0.06445,-29.46308l-0.05781,-57.51877c0.00898,-12.9766 -0.05,-25.95277 -0.17734,-38.92853c-0.08867,-7.57989 -0.81172,-15.80766 0.04922,-23.32109c0.45664,-3.98556 2.18945,-7.53433 4.6668,-10.52172c2.7082,-3.26662 6.10898,-6.01032 9.60547,-8.23405c7.88164,-5.01299 16.82187,-8.72728 25.2168,-12.63677c14.42031,-6.71539 29.06328,-13.81714 44.24062,-18.35303c6.25664,-1.86977 12.46602,-2.91968 18.94297,-3.34603z" fill="rgb(252,251,251)" transform="translate(0)"/>
   <path d="m377.82889,134.76675c-6.10508,-1.6657 -12.1543,-3.38031 -18.08516,-5.68011c-13.75937,-5.33485 -51.54297,-22.65773 -58.68359,-35.40276c-2.97227,-5.30559 -4.13516,-12.94734 -2.6332,-18.94679c1.63203,-6.51986 6.37344,-10.54638 11.64141,-13.73692c8.62266,-5.22199 18.17773,-9.20463 27.23555,-13.51288c27.66953,-13.16001 53.8875,-25.17142 84.60625,-15.99772c13.99219,4.17838 27.57422,10.69924 40.84766,16.96998c9.29297,4.39102 19.36719,8.81171 27.78516,14.90522c2.875,2.08244 5.91797,4.69908 7.63672,7.9983c2.67187,5.13254 2.46094,12.30864 0.93359,17.78519c-3.125,11.21935 -16.54687,18.69808 -25.63281,23.84985c-15.73437,8.92206 -39.87109,19.18463 -57.46875,22.11309c-6.96094,1.15909 -14,1.25816 -21.03125,1.49683c-0.10547,39.11997 0,78.23994 0.32031,117.35866c4.67578,-0.08402 9.33594,-0.1718 14,-0.525c-0.47656,-35.78522 0.06641,-71.58215 -0.25391,-107.36905c23.41016,-2.08997 67.91406,-18.28511 87.08594,-32.9157l-0.13281,60.3954c0,10.26591 -0.71875,21.60439 0.24609,31.73821c0.07812,0.81592 0.28125,1.31083 0.71094,1.99048l0.81641,-1.63602l0.41406,0.11662c1.5,4.25768 0.90625,16.2453 -0.89453,20.5034c-1.42969,3.38449 -3.99219,5.83895 -6.78125,7.9402c-6.96484,5.24331 -15.26172,8.78329 -22.97656,12.56362c-13.46484,6.59844 -27.00781,13.01756 -40.92187,18.47488c-24.27734,9.52063 -42.81992,5.15762 -66.11992,-4.54735c-12.48047,-5.19816 -24.61602,-11.32385 -36.74844,-17.38057c-7.28984,-3.63905 -21.51836,-9.71458 -24.44805,-18.30893c-1.88086,-5.51793 -0.90586,-13.28675 -0.79141,-19.17167c1.98086,3.58931 4.18008,6.33176 7.27266,8.90033c4.29844,3.5705 9.40781,6.21598 14.20859,8.93042c18.00859,10.18273 37.90625,20.21874 57.49961,26.15341c-0.16836,-38.29109 -0.58008,-76.7799 0.34258,-115.0526z" fill="rgb(38,41,73)" transform="translate(0)"/>
   <path d="m409.04685,146.07262c23.41016,-2.08997 67.91406,-18.28511 87.08594,-32.9157l-0.13281,60.3954c0,10.26591 -0.71875,21.60439 0.24609,31.73821c0.07812,0.81592 0.28125,1.31083 0.71094,1.99048c-0.62109,3.93081 -5.05859,7.44905 -7.875,9.59169c-17.32031,13.18726 -58.74219,31.80802 -79.78125,36.56896c-0.47656,-35.78522 0.06641,-71.58215 -0.25391,-107.36905z" fill="rgb(129,129,137)" transform="translate(0)"/>
   <path d="m395.23435,39.38917c6.76562,-0.22919 13.58203,0.1404 20.17969,1.84067c12.35547,3.18268 61.98437,24.48486 70.64844,32.23404c1.89062,1.68995 4.37109,4.36343 4.48047,7.15144c0.08984,2.45195 -1.17969,4.61673 -2.67578,6.35433c-11.23828,13.03386 -52.96484,28.52761 -69.28516,32.55623c-4.98828,1.23183 -9.94141,1.91608 -15.05469,2.13511c-6.17578,0.43053 -12.76953,0.33063 -18.87266,-0.82428c-18.36875,-3.47687 -57.71367,-20.24299 -71.84687,-31.91461c-2.35352,-1.94367 -5.18164,-4.73085 -5.48477,-8.08775c-0.20391,-2.25633 0.60234,-4.30742 1.98477,-5.9727c5.43008,-6.54076 56.51953,-29.20685 66.84336,-32.39196c6.25703,-1.93029 12.6,-2.73021 19.0832,-3.08053z" fill="rgb(159,212,31)" transform="translate(0)"/>
   <path d="m129.63045,528.46189c16.89102,-0.31349 33.82227,-0.07524 50.71758,-0.09196l93.44414,-0.06688l271.37578,-0.00836l149.60547,0.29678c17.34766,-0.0627 34.69141,-0.01672 52.03906,0.14212c7.68359,0.06688 15.82422,-0.47651 23.45703,0.33021c0.92969,0.09614 2.73828,0.21736 3.33984,0.98646c-1.16406,1.15366 -3.33203,1.42954 -4.87109,1.73885c-9.91406,1.98129 -20.00391,2.95939 -29.97266,4.58538l-79.58594,12.40185c-7.89062,1.14948 -15.85547,1.81827 -23.72656,3.13913c-23.90234,2.44526 -47.82422,7.03482 -71.63281,10.51253c-36.53125,5.32105 -73.10547,10.33279 -109.71094,15.03103c-11.42187,1.63853 -22.83203,3.38992 -34.22266,5.26253c-7.69531,1.2498 -15.57422,2.84235 -23.35937,3.17675c-8.62422,0.37201 -17.83555,-2.02309 -26.35781,-3.34812c-11.00703,-1.64689 -22.02383,-3.21019 -33.05039,-4.69406c-57.3793,-8.10907 -114.70351,-16.65702 -171.96875,-25.6397l-101.10195,-15.01849l-26.62367,-3.95839c-4.90223,-0.73567 -10.8452,-1.00318 -15.44125,-2.87997l0.00625,-0.45561c5.21008,-2.2279 95.14226,-1.208 107.6407,-1.44208z" fill="rgb(159,212,31)" transform="translate(0)"/>
   <path d="m23.39479,317.93508c9.95062,-0.2717 19.96926,0.00251 29.92668,0.01923c23.88203,0.04096 43.84023,-0.28382 62.34023,18.44144c14.92578,15.10752 19.55,35.91564 20.09062,57.19316c0.59531,23.43604 -2.88164,45.38067 -18.35508,62.8695c-18.35625,19.3489 -38.39297,20.4315 -62.73789,20.38552l-31.16297,-0.02926l-0.1016,-158.87959z" fill="rgb(252,251,251)" transform="translate(0)"/>
   <path d="m44.83631,339.23768c18.62578,-0.02675 39.73477,-2.47661 54.52187,12.28273c10.29531,10.27636 13.46328,25.33122 13.95352,39.84561c0.59922,17.7321 -0.4043,36.6814 -12.27109,50.35813c-15.36016,15.34453 -36.87422,12.62757 -56.26094,12.92017l0.05664,-115.40664z" fill="rgb(38,41,73)" transform="translate(0)"/>
   <path d="m656.62888,317.97938l21.15234,-0.01839c-0.30859,22.68866 0.57812,45.49395 -0.28906,68.16088l72.5625,-0.00418c-0.32031,-10.35243 -0.08203,-20.77593 -0.07031,-31.13547c0.01953,-12.26601 -0.12891,-24.56378 0.17969,-36.82519c6.93359,-0.02174 13.86328,-0.08234 20.79687,-0.18183l-0.07031,158.14977l-0.25781,0.41799c-3.69531,1.04498 -15.9375,0.2717 -20.51562,0.26752c-0.20312,-12.16778 -0.08594,-24.36482 -0.10156,-36.53678c-0.01953,-10.6212 -0.22266,-21.30929 0.23437,-31.91921l-72.44531,-0.14295l0.00781,68.5446l-20.86328,0.02926c-0.55859,-16.46475 -0.13281,-33.12595 -0.19531,-49.6116l-0.125,-109.19442z" fill="rgb(252,251,251)" transform="translate(0)"/>
   <path d="m578.39841,313.57792c9.95703,-1.36308 22.01172,1.61805 30.91016,6.37314c11.47266,6.13029 18.52734,15.57986 22.51953,28.49041c-6.26953,3.25575 -13.04687,5.24289 -19.24609,8.62947c-1.67187,-4.54484 -3.87891,-8.80419 -7.16406,-12.24636c-5.88281,-6.16582 -14.1875,-8.26832 -22.21875,-8.16591c-7.25,0.09238 -15.6875,2.43941 -20.84766,8.21691c-3.35547,3.75609 -4.86719,8.90701 -4.71094,14.05209c0.55859,18.16305 27.05078,23.48452 39.55859,28.87204c8.91016,3.83676 18.05859,8.5233 25.125,15.63252c7.52344,7.56526 11.05078,17.92731 11.26172,28.85364c0.23828,12.48545 -3.52344,23.95518 -11.71875,32.93367c-10.34375,11.32761 -24.66797,14.95161 -38.95312,15.18569c-11.08594,-0.58937 -21.32812,-3.29797 -30.82031,-9.67236c-10.19141,-6.83837 -16.60547,-17.61005 -19.19922,-30.04952c6.95312,-2.99283 14.16016,-5.24999 21.06641,-8.41002c0.74219,6.79657 3.17578,12.16778 8.07031,16.6821c7.18359,6.62519 16.84375,8.81547 26.11719,7.97949c7.26172,-0.65207 15.5,-3.35648 20.30078,-9.58458c3.10547,-4.02527 4.65234,-9.91898 4.15625,-15.09373c-1.67187,-17.48967 -28.73047,-23.68683 -41.55859,-28.9013c-7.26953,-2.95438 -15.23047,-6.68329 -21.25391,-12.03695c-8.17578,-7.27183 -12.375,-18.24958 -13.23828,-29.4054c-0.89453,-11.57924 1.70312,-23.05106 8.82031,-32.01743c8.28906,-10.44063 20.57031,-15.21871 33.02344,-16.31761z" fill="rgb(252,251,251)" transform="translate(0)"/>
   <path d="m197.48553,313.57457c9.74766,-1.04456 20.90937,1.64271 29.62891,6.27366c11.1918,5.94386 19.17773,15.44192 23.19023,28.12425c-6.19062,3.56632 -12.93203,6.09267 -19.46836,8.82885c-1.62148,-4.02945 -3.36289,-7.7985 -6.13711,-11.09646c-5.30391,-6.30501 -12.73828,-8.74442 -20.48281,-9.12437c-7.87266,-0.38581 -16.58711,1.69622 -22.47773,7.6221c-3.56484,3.58638 -5.27852,8.34899 -5.35977,13.54423c-0.29023,18.57854 26.68281,24.8104 39.38789,30.3417c9.29453,4.04659 19.80117,9.19418 26.825,17.0863c7.4625,8.38494 10.09023,18.77207 9.84258,30.0955c-0.26562,12.1427 -4.33242,22.77644 -12.61289,31.16556c-9.8582,9.98585 -24.41641,14.287 -37.77031,13.90245c-11.29258,-0.22154 -22.31758,-3.39828 -31.6957,-10.27427c-9.14609,-6.70043 -15.46914,-17.97788 -17.54297,-29.58555c6.76992,-2.80473 13.69336,-5.30015 20.30703,-8.50198c0.69961,6.77149 3.55469,13.03302 8.43398,17.46375c6.96133,6.32006 16.97773,8.32642 25.87383,7.48208c7.03945,-0.66879 14.98125,-3.32304 19.6418,-9.35469c3.13633,-4.05871 4.53945,-9.50098 4.07852,-14.71754c-1.61094,-18.24623 -27.6043,-23.74786 -40.8168,-29.14582c-7.39102,-3.01958 -15.09258,-6.77567 -21.22187,-12.2217c-8.16719,-7.2572 -12.76914,-17.62175 -13.74062,-28.85281c-1.02109,-11.80371 1.39102,-22.88888 8.6043,-32.07763c8.69687,-11.07891 20.41992,-15.8085 33.51289,-16.97762z" fill="rgb(252,251,251)" transform="translate(0)"/>
   <path d="m445.92967,318.01157c5.375,0.00334 10.75,0.09906 16.12109,0.28716c3.66406,13.08527 9.67187,26.34778 14.55078,39.0439c11.23437,29.24154 22.97266,58.20846 33.98437,87.55408c3.92187,10.44565 8.87891,21.16299 11.71484,31.96393c-7.53906,-0.13376 -15.08203,-0.1463 -22.625,-0.03344c-4.32031,-11.7874 -8.88672,-23.37835 -12.83984,-35.3246c-16.33594,-0.14212 -32.67969,0.209 -49.01172,-0.0418c4.33203,-7.81229 8.07422,-15.7458 11.66406,-23.9719c9.28906,-0.09823 18.58984,0.06688 27.87891,0.12122c-3.13281,-6.86094 -5.73828,-14.05585 -8.4375,-21.12119c-5.03125,-12.78766 -9.32422,-26.08778 -14.85937,-38.61796c-5.76953,11.15456 -9.42187,24.15958 -13.88281,36.01721c-10.33203,27.45462 -20.57812,55.10068 -30.34375,82.78437c-7.43359,-0.10032 -14.88281,-0.00836 -22.32109,-0.00418c4.0125,-13.58478 9.68437,-26.68468 14.575,-39.93506c9.02734,-24.45594 17.92187,-48.99297 27.25781,-73.31557c3.33203,-8.59477 6.60156,-17.21755 9.80469,-25.8675c2.42187,-6.41578 5.08203,-12.84827 6.76953,-19.53867z" fill="rgb(252,251,251)" transform="translate(0)"/>
   <path d="m270.82303,318.0145c38.69062,-0.54632 77.43164,0.00752 116.1289,-0.00125c-0.03906,6.99386 0.07617,13.9965 0.12695,20.99078c-5.44219,0.53378 -11.07617,0.27253 -16.54023,0.22697c-10.18203,-0.08527 -20.38672,-0.3578 -30.56641,-0.07064l-0.17734,87.73758c-0.01172,16.64866 -0.11172,33.29315 -0.29922,49.94181l-21.45703,0.03762l0.14609,-103.32914c0.07734,-11.48645 -0.16055,-22.97792 0.02812,-34.46228c-5.67461,0.55635 -11.65625,0.14797 -17.36406,0.08945l-30.11719,-0.24369l0.09141,-20.91721z" fill="rgb(252,251,251)" transform="translate(0)"/>
  </g>
 </g>
</svg>