<svg version="1.1" xmlns="http://www.w3.org/2000/svg" style="display: block;" viewBox="0 0 2048 2048" width="1024" height="1024" preserveAspectRatio="none">
<path transform="translate(0,0)" fill="rgb(38,41,72)" d="M 0 0 L 2048 0 L 2048 2048 L 0 2048 L 0 0 z"/>
<path transform="translate(0,0)" fill="rgb(252,252,251)" d="M 1018.69 520.445 C 1033.59 519.53 1049.55 521.124 1064.04 524.677 C 1092.46 531.646 1181.76 567.689 1202.82 585.521 C 1210.19 591.765 1215.29 600.317 1215.97 610.065 C 1216.94 623.844 1216.3 638.182 1216.37 652.027 L 1216.08 751.194 L 1216.07 815.495 C 1216.06 827.808 1217.09 841.31 1215.1 853.44 C 1213.91 860.648 1210.42 868.561 1205.46 873.957 C 1186.83 894.213 1094.18 931.782 1065.33 939.949 C 1055.22 942.811 1045.41 944.29 1034.94 944.973 C 1019.76 945.258 1004.2 944.336 989.418 940.702 C 961.738 933.897 865.987 893.901 845.876 876.645 C 838.795 870.57 834.76 861.633 834.188 852.395 C 833.187 836.211 834.18 819.522 834.211 803.289 L 834.145 707.761 L 833.857 642.065 C 833.781 630.108 832.552 616.847 834.35 605.055 C 835.169 599.681 838.908 594.192 842.497 590.262 C 861.405 569.554 953.443 533.511 983.178 525.619 C 994.991 522.483 1006.5 520.993 1018.69 520.445 z"/>
<path transform="translate(0,0)" fill="rgb(38,41,72)" d="M 988.047 708.249 C 956.131 699.761 868.391 668.086 852.249 638.892 C 847.248 629.849 845.807 617.653 849.057 607.773 C 853.589 593.992 868.665 586.569 880.901 580.828 C 897.597 572.996 914.63 565.745 931.523 558.345 C 987.666 533.754 1027.53 523.644 1086.92 545.475 C 1111.04 554.34 1169.6 577.905 1188.68 592.567 C 1193.71 596.435 1198.1 601.001 1200.65 606.898 C 1204.95 616.828 1203.25 628.879 1199.15 638.609 C 1190.1 660.05 1137.46 681.9 1115.17 690.617 C 1081.89 703.631 1054.28 710.85 1018.11 711.062 C 1017.9 775.356 1018.13 839.651 1018.79 903.943 C 1026.92 903.803 1035.1 903.827 1043.21 903.089 C 1042.5 844.381 1043.1 785.627 1042.93 726.911 C 1085.26 722.279 1162.09 697.942 1196.02 672.426 C 1195.82 689.056 1194.08 819.422 1196.43 824.385 C 1196.76 825.076 1197.46 825.518 1197.97 826.084 L 1199.44 824.662 C 1202.26 832.51 1201.29 851.139 1197.93 858.702 C 1189.22 878.299 1095.38 915.018 1070.34 923.621 C 1049.92 930.637 1028.99 932.879 1007.52 930.006 C 971.499 925.188 917.312 898.566 883.951 882.106 C 873.301 876.851 854.308 868.397 850.094 856.348 C 846.89 847.185 848.442 835.052 848.692 825.478 C 852.598 831.1 856.528 835.667 862.039 839.811 C 887.397 858.877 956.433 889.085 987.43 897.011 C 987.032 834.186 986.587 771.051 988.047 708.249 z"/>
<path transform="translate(0,0)" fill="rgb(129,129,137)" d="M 1196.02 672.426 C 1195.82 689.056 1194.08 819.422 1196.43 824.385 C 1196.76 825.076 1197.46 825.518 1197.97 826.084 C 1191.94 843.469 1163.24 855.756 1147.42 863.442 C 1114.92 879.241 1078.75 895.719 1043.21 903.089 C 1042.5 844.381 1043.1 785.627 1042.93 726.911 C 1085.26 722.279 1162.09 697.942 1196.02 672.426 z"/>
<path transform="translate(0,0)" fill="rgb(159,212,31)" d="M 1021.44 551.428 C 1032.72 551.434 1043.75 551.996 1054.75 554.689 C 1077.85 560.344 1153.19 590.909 1172.75 603.569 C 1177.66 606.746 1184.41 611.733 1185.43 617.965 C 1186.15 622.364 1183.96 626.504 1181.2 629.753 C 1164 650.056 1091.02 675.455 1063.2 682.241 C 1052.61 684.823 1042.27 686.219 1031.4 686.908 C 1019.86 687.035 1008.52 686.866 997.142 684.682 C 963.568 678.233 904.248 654.542 876.363 634.794 C 871.182 631.126 864.723 625.592 864.189 618.759 C 863.934 615.509 866.097 612.228 868.175 609.904 C 879.698 597.016 966.592 561.784 985.854 556.351 C 997.512 553.062 1009.38 551.945 1021.44 551.428 z"/>
<path transform="translate(0,0)" fill="rgb(159,212,31)" d="M 1182.67 1354.5 C 1288.31 1353.31 1394.18 1354.43 1499.83 1354.82 L 1618.44 1355.05 C 1642.07 1355.18 1665.74 1354.94 1689.33 1356.36 C 1671.61 1362.94 1651.07 1363.62 1632.37 1366.26 C 1605.81 1370.26 1579.22 1374.12 1552.61 1377.82 C 1411.49 1398.07 1270.17 1416.94 1128.68 1434.43 C 1106.03 1437.33 1083.44 1440.55 1060.89 1444.09 C 1047.73 1446.05 1034.05 1448.79 1020.74 1449.07 C 1002.5 1449.46 982.837 1444.72 964.734 1442.25 C 937.792 1438.57 910.602 1435.77 883.769 1431.42 C 827.234 1425.65 770.553 1416.14 714.296 1407.98 L 500.288 1377.97 C 466.406 1373.11 432.343 1369.06 398.533 1363.78 C 387.199 1362.02 374.828 1361.71 364.029 1357.74 L 364.335 1356.76 C 385.108 1353.17 421.404 1355.11 443.793 1355.07 L 600.818 1354.8 L 1182.67 1354.5 z"/>
<path transform="translate(0,0)" fill="rgb(252,252,251)" d="M 365.063 1008.92 L 420.265 1008.96 C 460.297 1009.03 496.93 1010.31 527.711 1039.62 C 553.91 1064.56 561.727 1099.28 562.613 1134.27 C 563.593 1173.03 557.041 1208.2 529.789 1237.02 C 497.894 1267.99 460.387 1270.1 418.395 1270.01 L 365.208 1269.96 L 365.063 1008.92 z"/>
<path transform="translate(0,0)" fill="rgb(38,41,72)" d="M 402.789 1043.96 C 434.77 1043.81 471.173 1040.23 497.153 1062.77 C 515.307 1078.52 521.446 1101.91 522.861 1125.1 C 524.722 1155.59 523.237 1188.02 502.025 1211.83 C 475.883 1237.67 436.418 1232.99 402.756 1233.55 L 402.789 1043.96 z"/>
<path transform="translate(0,0)" fill="rgb(252,252,251)" d="M 1478.02 1009.03 L 1515.1 1008.99 L 1514.87 1120.98 L 1642.12 1121.01 C 1641.26 1083.9 1641.76 1046.42 1642.34 1009.3 L 1678.9 1008.99 L 1678.89 1178.13 C 1678.88 1208.37 1680.59 1239.75 1678.63 1269.88 L 1642.23 1269.94 C 1642.12 1232.58 1641.14 1194.91 1642.49 1157.58 L 1515.15 1157.14 L 1515.2 1269.89 L 1478.53 1269.9 C 1477.64 1239.99 1478.22 1209.88 1478.17 1179.95 L 1478.02 1009.03 z"/>
<path transform="translate(0,0)" fill="rgb(252,252,251)" d="M 1334.94 1002.36 C 1355.29 1000.08 1376.28 1003.01 1394.71 1012.19 C 1415.05 1022.33 1427.23 1037.83 1434.47 1059.08 C 1423.51 1064.41 1411.77 1068.23 1400.6 1073.17 C 1397.41 1065.69 1393.9 1058.77 1387.91 1053.06 C 1377.4 1043.04 1362.11 1039.23 1347.96 1039.76 C 1334.74 1040.25 1320.18 1044.37 1311.1 1054.62 C 1305.49 1060.94 1303.36 1069.63 1304.21 1077.95 C 1307.11 1106.47 1351.5 1115.01 1373.01 1123.54 C 1387.21 1129.17 1401.53 1135.99 1413.46 1145.67 C 1427.57 1157.12 1435.44 1172.2 1437.13 1190.24 C 1438.97 1209.91 1433.89 1231.58 1420.89 1246.79 C 1403.48 1267.16 1379.07 1273.78 1353.33 1275.96 C 1333.43 1276.35 1313.81 1271.29 1296.58 1261.33 C 1276.97 1249.78 1266.1 1232.3 1260.4 1210.66 C 1272.58 1205.91 1285.02 1201.97 1297.12 1196.97 C 1299.59 1208.81 1303.99 1218.25 1313.82 1225.89 C 1326.62 1235.83 1343.88 1239.03 1359.71 1237.02 C 1372.82 1235.35 1386.04 1231.25 1394.26 1220.22 C 1399.52 1213.16 1402.2 1203.16 1400.5 1194.45 C 1395.35 1168.01 1352.69 1158.61 1331.4 1150.66 C 1318.73 1145.93 1305.68 1140.56 1294.59 1132.68 C 1279.62 1122.04 1270.55 1106.02 1267.74 1087.98 C 1264.8 1069.15 1267.92 1047.84 1279.47 1032.29 C 1292.72 1014.47 1313.44 1005.37 1334.94 1002.36 z"/>
<path transform="translate(0,0)" fill="rgb(252,252,251)" d="M 665.576 1002.34 C 682.322 999.348 703.078 1003.27 718.54 1009.94 C 741.003 1019.64 755.243 1035.7 764.157 1058.2 C 753.158 1063.99 741.401 1068.26 729.85 1072.81 C 726.267 1064.75 722.048 1057.2 715.478 1051.18 C 705.042 1041.61 689.892 1039.31 676.17 1039.75 C 663.396 1040.15 649.784 1044.77 641.075 1054.58 C 635.497 1060.86 633.259 1069.49 634.091 1077.77 C 636.893 1105.67 681.001 1115.24 702.287 1123.86 C 716.626 1129.67 731.395 1136.41 743.562 1146.13 C 756.987 1156.86 765.451 1171.97 767.278 1189.09 C 769.516 1210.04 765.024 1230.19 751.389 1246.6 C 734.759 1266.6 710.496 1273.74 685.469 1275.97 C 666.891 1275.99 648.613 1272.92 632.084 1264.13 C 609.704 1252.21 599.264 1234.08 592.162 1210.4 C 604.198 1206.02 616.139 1201.38 627.977 1196.49 C 630.267 1208.1 634.583 1218.19 644.055 1225.73 C 656.836 1235.91 674.418 1238.85 690.294 1237.05 C 703.329 1235.57 716.089 1231.01 724.334 1220.18 C 729.677 1213.16 731.306 1204.18 729.902 1195.58 C 725.38 1167.85 684.327 1159.46 662.459 1151.32 C 649.434 1146.47 636.245 1140.88 624.962 1132.64 C 609.341 1121.22 600.36 1105.4 597.557 1086.36 C 594.82 1067.77 598.25 1047.97 609.64 1032.72 C 623.355 1014.35 643.368 1005.4 665.576 1002.34 z"/>
<path transform="translate(0,0)" fill="rgb(252,252,251)" d="M 1107.77 1009.08 C 1117.19 1009.08 1126.6 1009.21 1136.01 1009.48 C 1142.08 1029.48 1151.52 1049.27 1159.49 1068.62 C 1178.95 1115.89 1199.38 1162.69 1218.5 1210.11 C 1226.45 1229.81 1235.67 1249.73 1241.97 1270.01 C 1228.72 1269.91 1215.48 1269.88 1202.23 1269.93 C 1194.15 1250.83 1186.61 1231.51 1179.63 1211.99 L 1093.47 1211.96 C 1101.12 1199.12 1107.63 1185.89 1114.14 1172.45 C 1130.38 1172.16 1146.69 1172.68 1162.93 1172.89 C 1157.89 1161.61 1153.06 1150.23 1148.46 1138.75 C 1139.5 1117.54 1132.16 1095.09 1121.83 1074.56 C 1112.36 1093.95 1105.07 1114.76 1097.06 1134.83 L 1044.19 1269.76 L 1004.97 1269.74 C 1012.98 1246.77 1022.56 1224.38 1031.54 1201.77 L 1078.57 1083.82 C 1088.37 1059.41 1100.67 1034.33 1107.77 1009.08 z"/>
<path transform="translate(0,0)" fill="rgb(252,252,251)" d="M 800.045 1009.05 C 868.003 1008.33 936.039 1009.02 1004 1009.06 L 1004.19 1043.82 C 976.723 1044.57 949.073 1043.89 921.582 1043.86 C 921.057 1091.74 920.897 1139.62 921.1 1187.5 L 920.831 1270 L 882.996 1270.03 L 883.121 1043.92 C 855.373 1043.98 827.624 1043.86 799.877 1043.55 L 800.045 1009.05 z"/>
</svg>