<svg version="1.1" xmlns="http://www.w3.org/2000/svg" style="display: block;" viewBox="0 0 2048 1445" width="703" height="496" preserveAspectRatio="none">
<path transform="translate(0,0)" fill="rgb(38,41,73)" d="M 0 0 L 2048 0 L 2048 1445 L 0 1445 L 0 0 z"/>
<path transform="translate(0,0)" fill="rgb(252,251,251)" d="M 1005.67 50.4305 C 1006.28 50.3637 1006.89 50.308 1007.5 50.2731 C 1030.29 48.9781 1053.16 50.8254 1075.45 55.7632 C 1115.77 65.0152 1253.61 121.211 1280.98 145.674 C 1291.05 154.669 1298.97 167.555 1299.55 181.337 C 1300.54 204.614 1299.84 228.244 1299.91 251.559 C 1300.03 305.876 1299.88 360.193 1299.44 414.509 L 1299.25 490.251 C 1299.22 504.679 1300.26 520.258 1298.12 534.536 C 1296.44 545.771 1291.33 557.067 1283.6 565.424 C 1277.2 572.338 1269.58 578.06 1261.55 582.931 C 1245.21 592.834 1227.16 600.428 1209.85 608.505 C 1168.48 627.813 1124.35 648.469 1080.55 661.129 C 1065.82 665.388 1051.44 667.675 1036.14 668.366 C 1013.98 669.699 989.94 667.471 968.393 662.118 C 930.448 652.693 786.95 592.325 760.664 569.444 C 750.116 560.262 744.124 548.449 743.139 534.465 C 741.508 511.312 743.231 487.227 743.304 463.978 L 743.156 326.371 C 743.179 295.326 743.028 264.282 742.702 233.239 C 742.475 215.105 740.624 195.421 742.828 177.446 C 743.997 167.911 748.433 159.421 754.775 152.274 C 761.708 144.459 770.414 137.895 779.365 132.575 C 799.542 120.582 822.429 111.696 843.92 102.343 C 880.836 86.2772 918.322 69.2871 957.176 58.4355 C 973.193 53.9623 989.089 51.4505 1005.67 50.4305 z"/>
<path transform="translate(0,0)" fill="rgb(38,41,73)" d="M 967.242 323.61 C 951.613 319.625 936.127 315.523 920.944 310.021 C 885.72 297.258 788.994 255.815 770.714 225.324 C 763.105 212.631 760.128 194.349 763.973 179.996 C 768.151 164.398 780.289 154.765 793.775 147.132 C 815.849 134.639 840.31 125.111 863.498 114.804 C 934.332 83.3202 1001.45 54.5843 1080.09 76.5313 C 1115.91 86.5276 1150.68 102.128 1184.66 117.13 C 1208.45 127.635 1234.24 138.211 1255.79 152.789 C 1263.15 157.771 1270.94 164.031 1275.34 171.924 C 1282.18 184.203 1281.64 201.371 1277.73 214.473 C 1269.73 241.314 1235.37 259.206 1212.11 271.531 C 1171.83 292.876 1110.04 317.428 1064.99 324.434 C 1047.17 327.207 1029.15 327.444 1011.15 328.015 C 1010.88 421.605 1011.15 515.195 1011.97 608.782 C 1023.94 608.581 1035.87 608.371 1047.81 607.526 C 1046.59 521.914 1047.98 436.274 1047.16 350.658 C 1107.09 345.658 1221.02 306.913 1270.1 271.911 L 1269.76 416.4 C 1269.76 440.96 1267.92 468.086 1270.39 492.33 C 1270.59 494.282 1271.11 495.466 1272.21 497.092 L 1274.3 493.178 L 1275.36 493.457 C 1279.2 503.643 1277.68 532.322 1273.07 542.509 C 1269.41 550.606 1262.85 556.478 1255.71 561.505 C 1237.88 574.049 1216.64 582.518 1196.89 591.562 C 1162.42 607.348 1127.75 622.705 1092.13 635.761 C 1029.98 658.538 982.511 648.1 922.863 624.882 C 890.913 612.446 859.846 597.791 828.787 583.301 C 810.125 574.595 773.7 560.06 766.2 539.499 C 761.385 526.298 763.881 507.712 764.174 493.633 C 769.245 502.22 774.875 508.781 782.792 514.926 C 793.796 523.468 806.876 529.797 819.166 536.291 C 865.268 560.652 916.206 584.662 966.365 598.86 C 965.934 507.253 964.88 415.173 967.242 323.61 z"/>
<path transform="translate(0,0)" fill="rgb(129,129,137)" d="M 1047.16 350.658 C 1107.09 345.658 1221.02 306.913 1270.1 271.911 L 1269.76 416.4 C 1269.76 440.96 1267.92 468.086 1270.39 492.33 C 1270.59 494.282 1271.11 495.466 1272.21 497.092 C 1270.62 506.496 1259.26 514.913 1252.05 520.039 C 1207.71 551.588 1101.67 596.136 1047.81 607.526 C 1046.59 521.914 1047.98 436.274 1047.16 350.658 z"/>
<path transform="translate(0,0)" fill="rgb(159,212,31)" d="M 1011.8 95.4302 C 1029.12 94.8819 1046.57 95.7661 1063.46 99.8338 C 1095.09 107.448 1222.14 158.411 1244.32 176.95 C 1249.16 180.993 1255.51 187.389 1255.79 194.059 C 1256.02 199.925 1252.77 205.104 1248.94 209.261 C 1220.17 240.443 1113.35 277.51 1071.57 287.148 C 1058.8 290.095 1046.12 291.732 1033.03 292.256 C 1017.22 293.286 1000.34 293.047 984.716 290.284 C 937.692 281.966 836.969 241.855 800.788 213.932 C 794.763 209.282 787.523 202.614 786.747 194.583 C 786.225 189.185 788.289 184.278 791.828 180.294 C 805.729 164.646 936.518 110.42 962.947 102.8 C 978.965 98.182 995.203 96.2683 1011.8 95.4302 z"/>
<path transform="translate(0,0)" fill="rgb(159,212,31)" d="M 331.854 1265.48 C 375.095 1264.73 418.439 1265.3 461.691 1265.26 L 700.908 1265.1 L 1395.63 1265.08 L 1778.62 1265.79 C 1823.03 1265.64 1867.43 1265.75 1911.84 1266.13 C 1931.51 1266.29 1952.35 1264.99 1971.89 1266.92 C 1974.27 1267.15 1978.9 1267.44 1980.44 1269.28 C 1977.46 1272.04 1971.91 1272.7 1967.97 1273.44 C 1942.59 1278.18 1916.76 1280.52 1891.24 1284.41 L 1687.5 1314.08 C 1667.3 1316.83 1646.91 1318.43 1626.76 1321.59 C 1565.57 1327.44 1504.33 1338.42 1443.38 1346.74 C 1349.86 1359.47 1256.23 1371.46 1162.52 1382.7 C 1133.28 1386.62 1104.07 1390.81 1074.91 1395.29 C 1055.21 1398.28 1035.04 1402.09 1015.11 1402.89 C 993.032 1403.78 969.451 1398.05 947.634 1394.88 C 919.456 1390.94 891.253 1387.2 863.025 1383.65 C 716.134 1364.25 569.384 1343.8 422.785 1322.31 L 163.964 1286.38 L 95.8074 1276.91 C 83.2577 1275.15 68.0437 1274.51 56.2778 1270.02 L 56.2938 1268.93 C 69.6316 1263.6 299.858 1266.04 331.854 1265.48 z"/>
<path transform="translate(0,0)" fill="rgb(252,251,251)" d="M 59.8907 761.819 C 85.3643 761.169 111.012 761.825 136.503 761.865 C 197.641 761.963 248.734 761.186 296.094 805.984 C 334.304 842.127 346.142 891.908 347.526 942.812 C 349.05 998.88 340.149 1051.38 300.537 1093.22 C 253.545 1139.51 202.251 1142.1 139.928 1141.99 L 60.1508 1141.92 L 59.8907 761.819 z"/>
<path transform="translate(0,0)" fill="rgb(38,41,73)" d="M 114.781 812.783 C 162.463 812.719 216.502 806.858 254.357 842.168 C 280.713 866.753 288.823 902.77 290.078 937.494 C 291.612 979.916 289.043 1025.25 258.664 1057.97 C 219.342 1094.68 164.266 1088.18 114.636 1088.88 L 114.781 812.783 z"/>
<path transform="translate(0,0)" fill="rgb(252,251,251)" d="M 1680.97 761.925 L 1735.12 761.881 C 1734.33 816.161 1736.6 870.72 1734.38 924.948 L 1920.14 924.938 C 1919.32 900.171 1919.93 875.234 1919.96 850.45 C 1920.01 821.105 1919.63 791.684 1920.42 762.35 C 1938.17 762.298 1955.91 762.153 1973.66 761.915 L 1973.48 1140.27 L 1972.82 1141.27 C 1963.36 1143.77 1932.02 1141.92 1920.3 1141.91 C 1919.78 1112.8 1920.08 1083.62 1920.04 1054.5 C 1919.99 1029.09 1919.47 1003.52 1920.64 978.137 L 1735.18 977.795 L 1735.2 1141.78 L 1681.79 1141.85 C 1680.36 1102.46 1681.45 1062.6 1681.29 1023.16 L 1680.97 761.925 z"/>
<path transform="translate(0,0)" fill="rgb(252,251,251)" d="M 1480.7 751.395 C 1506.19 748.134 1537.05 755.266 1559.83 766.642 C 1589.2 781.308 1607.26 803.915 1617.48 834.802 C 1601.43 842.591 1584.08 847.345 1568.21 855.447 C 1563.93 844.574 1558.28 834.384 1549.87 826.149 C 1534.81 811.398 1513.55 806.368 1492.99 806.613 C 1474.43 806.834 1452.83 812.449 1439.62 826.271 C 1431.03 835.257 1427.16 847.58 1427.56 859.889 C 1428.99 903.342 1496.81 916.073 1528.83 928.962 C 1551.64 938.141 1575.06 949.353 1593.15 966.361 C 1612.41 984.46 1621.44 1009.25 1621.98 1035.39 C 1622.59 1065.26 1612.96 1092.7 1591.98 1114.18 C 1565.5 1141.28 1528.83 1149.95 1492.26 1150.51 C 1463.88 1149.1 1437.66 1142.62 1413.36 1127.37 C 1387.27 1111.01 1370.85 1085.24 1364.21 1055.48 C 1382.01 1048.32 1400.46 1042.92 1418.14 1035.36 C 1420.04 1051.62 1426.27 1064.47 1438.8 1075.27 C 1457.19 1091.12 1481.92 1096.36 1505.66 1094.36 C 1524.25 1092.8 1545.34 1086.33 1557.63 1071.43 C 1565.58 1061.8 1569.54 1047.7 1568.27 1035.32 C 1563.99 993.478 1494.72 978.652 1461.88 966.177 C 1443.27 959.109 1422.89 950.188 1407.47 937.38 C 1386.54 919.983 1375.79 893.72 1373.58 867.031 C 1371.29 839.329 1377.94 811.884 1396.16 790.433 C 1417.38 765.455 1448.82 754.024 1480.7 751.395 z"/>
<path transform="translate(0,0)" fill="rgb(252,251,251)" d="M 505.563 751.387 C 530.517 748.888 559.091 755.317 581.413 766.396 C 610.064 780.616 630.508 803.339 640.78 833.68 C 624.932 842.212 607.674 848.256 590.941 854.802 C 586.79 845.162 582.332 836.145 575.23 828.255 C 561.652 813.171 542.62 807.335 522.794 806.426 C 502.64 805.503 480.331 810.484 465.251 824.661 C 456.125 833.241 451.738 844.635 451.53 857.064 C 450.787 901.511 519.838 916.42 552.363 929.653 C 576.157 939.334 603.054 951.649 621.035 970.53 C 640.139 990.59 646.866 1015.44 646.232 1042.53 C 645.552 1071.58 635.141 1097.02 613.943 1117.09 C 588.706 1140.98 551.437 1151.27 517.251 1150.35 C 488.342 1149.82 460.118 1142.22 436.11 1125.77 C 412.696 1109.74 396.509 1082.76 391.2 1054.99 C 408.531 1048.28 426.255 1042.31 443.186 1034.65 C 444.977 1050.85 452.286 1065.83 464.777 1076.43 C 482.598 1091.55 508.24 1096.35 531.014 1094.33 C 549.035 1092.73 569.366 1086.38 581.297 1071.95 C 589.326 1062.24 592.918 1049.22 591.738 1036.74 C 587.614 993.088 521.071 979.926 487.247 967.012 C 468.326 959.788 448.61 950.802 432.919 937.773 C 412.011 920.411 400.23 895.615 397.743 868.746 C 395.129 840.507 401.304 813.987 419.77 792.004 C 442.034 765.499 472.045 754.184 505.563 751.387 z"/>
<path transform="translate(0,0)" fill="rgb(252,251,251)" d="M 1141.58 762.002 C 1155.34 762.01 1169.1 762.239 1182.85 762.689 C 1192.23 793.994 1207.61 825.723 1220.1 856.097 C 1248.86 926.054 1278.91 995.354 1307.1 1065.56 C 1317.14 1090.55 1329.83 1116.19 1337.09 1142.03 C 1317.79 1141.71 1298.48 1141.68 1279.17 1141.95 C 1268.11 1113.75 1256.42 1086.02 1246.3 1057.44 C 1204.48 1057.1 1162.64 1057.94 1120.83 1057.34 C 1131.92 1038.65 1141.5 1019.67 1150.69 999.99 C 1174.47 999.755 1198.28 1000.15 1222.06 1000.28 C 1214.04 983.866 1207.37 966.653 1200.46 949.75 C 1187.58 919.157 1176.59 887.338 1162.42 857.361 C 1147.65 884.047 1138.3 915.16 1126.88 943.528 C 1100.43 1009.21 1074.2 1075.35 1049.2 1141.58 C 1030.17 1141.34 1011.1 1141.56 992.058 1141.57 C 1002.33 1109.07 1016.85 1077.73 1029.37 1046.03 C 1052.48 987.522 1075.25 928.82 1099.15 870.631 C 1107.68 850.069 1116.05 829.44 1124.25 808.746 C 1130.45 793.397 1137.26 778.008 1141.58 762.002 z"/>
<path transform="translate(0,0)" fill="rgb(252,251,251)" d="M 693.307 762.009 C 792.355 760.702 891.532 762.027 990.597 762.006 C 990.497 778.738 990.792 795.491 990.922 812.224 C 976.99 813.501 962.567 812.876 948.579 812.767 C 922.513 812.563 896.389 811.911 870.329 812.598 L 869.875 1022.5 C 869.845 1062.33 869.589 1102.15 869.109 1141.98 L 814.179 1142.07 L 814.553 894.867 C 814.751 867.387 814.142 839.895 814.625 812.42 C 800.098 813.751 784.785 812.774 770.173 812.634 L 693.073 812.051 L 693.307 762.009 z"/>
</svg>