<?xml version="1.0" encoding="UTF-8" standalone="no"?>
<svg
   width="1100"
   height="300"
   version="1.1"
   id="svg14"
   sodipodi:docname="full-dark-bg.svg"
   inkscape:version="1.4.2 (ebf0e940, 2025-05-08)"
   xmlns:inkscape="http://www.inkscape.org/namespaces/inkscape"
   xmlns:sodipodi="http://sodipodi.sourceforge.net/DTD/sodipodi-0.dtd"
   xmlns="http://www.w3.org/2000/svg"
   xmlns:svg="http://www.w3.org/2000/svg">
  <defs
     id="defs14" />
  <sodipodi:namedview
     id="namedview14"
     pagecolor="#ffffff"
     bordercolor="#000000"
     borderopacity="0.25"
     inkscape:showpageshadow="2"
     inkscape:pageopacity="0.0"
     inkscape:pagecheckerboard="0"
     inkscape:deskcolor="#d1d1d1"
     inkscape:zoom="0.84704416"
     inkscape:cx="525.35632"
     inkscape:cy="385.45806"
     inkscape:window-width="1688"
     inkscape:window-height="1100"
     inkscape:window-x="2147"
     inkscape:window-y="86"
     inkscape:window-maximized="0"
     inkscape:current-layer="g13"
     showguides="false" />
  <g
     id="g13"
     transform="translate(0.75904179)">
    <path
       d="M -2e-5,-0.49999 H 1109.2258 V 313.60028 H -2e-5 Z"
       fill="#262949"
       id="path1"
       style="opacity:1;stroke-width:0.849143" />
    <g
       id="g14"
       transform="translate(-243.82238,0.31183272)"
       inkscape:label="icon"
       inkscape:export-filename="../logo-icon.svg"
       inkscape:export-xdpi="96"
       inkscape:export-ydpi="96">
      <path
         d="m 392.83982,20.57961 c 0.23828,-0.02792 0.47656,-0.0512 0.71484,-0.06579 8.90234,-0.5413 17.83594,0.23086 26.54297,2.29482 15.75,3.86727 69.59375,27.35673 80.28516,37.58209 3.93359,3.75985 7.02734,9.14611 7.25391,14.90689 0.38672,9.72962 0.11328,19.6068 0.14062,29.35231 0.0469,22.70413 -0.0117,45.40826 -0.18359,68.11197 l -0.0742,31.65963 c -0.0117,6.0308 0.39453,12.54272 -0.44141,18.51082 -0.65625,4.69615 -2.65234,9.4178 -5.67187,12.91097 -2.5,2.89 -5.47656,5.28176 -8.61328,7.3178 -6.38281,4.13939 -13.43359,7.31362 -20.19531,10.68976 -16.16016,8.07061 -33.39844,16.70468 -50.50781,21.99647 -5.75391,1.78023 -11.37109,2.73618 -17.34766,3.02502 -8.65625,0.55718 -18.04687,-0.3741 -26.46367,-2.61162 -14.82227,-3.93958 -70.87617,-29.17299 -81.14414,-38.73709 -4.12031,-3.83801 -6.46094,-8.77576 -6.8457,-14.62098 -0.63711,-9.67779 0.0359,-19.74516 0.0645,-29.46308 l -0.0578,-57.51877 c 0.009,-12.9766 -0.05,-25.95277 -0.17734,-38.92853 -0.0887,-7.57989 -0.81172,-15.80766 0.0492,-23.32109 0.45664,-3.98556 2.18945,-7.53433 4.6668,-10.52172 2.7082,-3.26662 6.10898,-6.01032 9.60547,-8.23405 7.88164,-5.01299 16.82187,-8.72728 25.2168,-12.63677 14.42031,-6.71539 29.06328,-13.81714 44.24062,-18.35303 6.25664,-1.86977 12.46602,-2.91968 18.94297,-3.34603 z"
         fill="#fcfbfb"
         id="path2" />
      <path
         d="m 377.82889,134.76675 c -6.10508,-1.6657 -12.1543,-3.38031 -18.08516,-5.68011 -13.75937,-5.33485 -51.54297,-22.65773 -58.68359,-35.40276 -2.97227,-5.30559 -4.13516,-12.94734 -2.6332,-18.94679 1.63203,-6.51986 6.37344,-10.54638 11.64141,-13.73692 8.62266,-5.22199 18.17773,-9.20463 27.23555,-13.51288 27.66953,-13.16001 53.8875,-25.17142 84.60625,-15.99772 13.99219,4.17838 27.57422,10.69924 40.84766,16.96998 9.29297,4.39102 19.36719,8.81171 27.78516,14.90522 2.875,2.08244 5.91797,4.69908 7.63672,7.9983 2.67187,5.13254 2.46094,12.30864 0.93359,17.78519 -3.125,11.21935 -16.54687,18.69808 -25.63281,23.84985 -15.73437,8.92206 -39.87109,19.18463 -57.46875,22.11309 -6.96094,1.15909 -14,1.25816 -21.03125,1.49683 -0.10547,39.11997 0,78.23994 0.32031,117.35866 4.67578,-0.084 9.33594,-0.1718 14,-0.525 -0.47656,-35.78522 0.0664,-71.58215 -0.25391,-107.36905 23.41016,-2.08997 67.91406,-18.28511 87.08594,-32.9157 L 496,173.55234 c 0,10.26591 -0.71875,21.60439 0.24609,31.73821 0.0781,0.81592 0.28125,1.31083 0.71094,1.99048 l 0.81641,-1.63602 0.41406,0.11662 c 1.5,4.25768 0.90625,16.2453 -0.89453,20.5034 -1.42969,3.38449 -3.99219,5.83895 -6.78125,7.9402 -6.96484,5.24331 -15.26172,8.78329 -22.97656,12.56362 -13.46484,6.59844 -27.00781,13.01756 -40.92187,18.47488 -24.27734,9.52063 -42.81992,5.15762 -66.11992,-4.54735 -12.48047,-5.19816 -24.61602,-11.32385 -36.74844,-17.38057 -7.28984,-3.63905 -21.51836,-9.71458 -24.44805,-18.30893 -1.88086,-5.51793 -0.90586,-13.28675 -0.79141,-19.17167 1.98086,3.58931 4.18008,6.33176 7.27266,8.90033 4.29844,3.5705 9.40781,6.21598 14.20859,8.93042 18.00859,10.18273 37.90625,20.21874 57.49961,26.15341 -0.16836,-38.29109 -0.58008,-76.7799 0.34258,-115.0526 z"
         fill="#262949"
         id="path3"
         sodipodi:nodetypes="scccccccccccccccccccccccccccccccccss" />
      <path
         d="m 409.04685,146.07262 c 23.41016,-2.08997 67.91406,-18.28511 87.08594,-32.9157 l -0.13281,60.3954 c 0,10.26591 -0.71875,21.60439 0.24609,31.73821 0.0781,0.81592 0.28125,1.31083 0.71094,1.99048 -0.62109,3.93081 -5.05859,7.44905 -7.875,9.59169 -17.32031,13.18726 -58.74219,31.80802 -79.78125,36.56896 -0.47656,-35.78522 0.0664,-71.58215 -0.25391,-107.36905 z"
         fill="#818189"
         id="path4" />
      <path
         d="m 395.23435,39.38917 c 6.76562,-0.22919 13.58203,0.1404 20.17969,1.84067 12.35547,3.18268 61.98437,24.48486 70.64844,32.23404 1.89062,1.68995 4.37109,4.36343 4.48047,7.15144 0.0898,2.45195 -1.17969,4.61673 -2.67578,6.35433 -11.23828,13.03386 -52.96484,28.52761 -69.28516,32.55623 -4.98828,1.23183 -9.94141,1.91608 -15.05469,2.13511 -6.17578,0.43053 -12.76953,0.33063 -18.87266,-0.82428 -18.36875,-3.47687 -57.71367,-20.24299 -71.84687,-31.91461 -2.35352,-1.94367 -5.18164,-4.73085 -5.48477,-8.08775 -0.20391,-2.25633 0.60234,-4.30742 1.98477,-5.9727 5.43008,-6.54076 56.51953,-29.20685 66.84336,-32.39196 6.25703,-1.93029 12.6,-2.73021 19.0832,-3.08053 z"
         fill="#9fd41f"
         id="path5"
         style="fill:#66c2ff;fill-opacity:1"
         sodipodi:nodetypes="scccccccccccss" />
    </g>
    <g
       id="g15"
       inkscape:label="name"
       transform="translate(281.59365,-246.82585)"
       inkscape:export-filename="logo-name.svg"
       inkscape:export-xdpi="96"
       inkscape:export-ydpi="96">
      <path
         id="path7"
         d="m 23.395255,317.93555 0.101563,158.8789 31.162109,0.0293 c 24.34492,0.046 44.382031,-1.03587 62.738283,-20.38477 15.47344,-17.48883 18.95078,-39.4331 18.35547,-62.86914 -0.54062,-21.27752 -5.16602,-42.08584 -20.0918,-57.19336 -18.5,-18.72526 -38.457814,-18.4004 -62.339844,-18.4414 -9.95742,-0.0162 -19.975161,-0.29123 -29.925781,-0.0195 z m 35.738281,21.13476 c 14.4878,-0.008 29.134285,1.37972 40.22461,12.44922 10.295314,10.27636 13.462884,25.33131 13.953124,39.8457 0.59922,17.7321 -0.40469,36.68265 -12.27148,50.35938 -15.360164,15.34453 -36.873049,12.62732 -56.259769,12.91992 l 0.05664,-115.40625 c 4.656445,-0.007 9.467609,-0.16515 14.296875,-0.16797 z"
         style="display:inline;fill:#ffffff" />
      <path
         d="m 656.62888,317.97938 21.15234,-0.0184 c -0.30859,22.68866 0.57812,45.49395 -0.28906,68.16088 l 72.5625,-0.004 c -0.32031,-10.35243 -0.082,-20.77593 -0.0703,-31.13547 0.0195,-12.26601 -0.12891,-24.56378 0.17969,-36.82519 6.93359,-0.0217 13.86328,-0.0823 20.79687,-0.18183 l -0.0703,158.14977 -0.25781,0.41799 c -3.69531,1.04498 -15.9375,0.2717 -20.51562,0.26752 -0.20312,-12.16778 -0.0859,-24.36482 -0.10156,-36.53678 -0.0195,-10.6212 -0.22266,-21.30929 0.23437,-31.91921 l -72.44531,-0.14295 0.008,68.5446 -20.86328,0.0293 c -0.55859,-16.46475 -0.13281,-33.12595 -0.19531,-49.6116 l -0.125,-109.19442 z"
         fill="#fcfbfb"
         id="path9" />
      <path
         d="m 578.39841,313.57792 c 9.95703,-1.36308 22.01172,1.61805 30.91016,6.37314 11.47266,6.13029 18.52734,15.57986 22.51953,28.49041 -6.26953,3.25575 -13.04687,5.24289 -19.24609,8.62947 -1.67187,-4.54484 -3.87891,-8.80419 -7.16406,-12.24636 -5.88281,-6.16582 -14.1875,-8.26832 -22.21875,-8.16591 -7.25,0.0924 -15.6875,2.43941 -20.84766,8.21691 -3.35547,3.75609 -4.86719,8.90701 -4.71094,14.05209 0.55859,18.16305 27.05078,23.48452 39.55859,28.87204 8.91016,3.83676 18.05859,8.5233 25.125,15.63252 7.52344,7.56526 11.05078,17.92731 11.26172,28.85364 0.23828,12.48545 -3.52344,23.95518 -11.71875,32.93367 -10.34375,11.32761 -24.66797,14.95161 -38.95312,15.18569 -11.08594,-0.58937 -21.32812,-3.29797 -30.82031,-9.67236 -10.19141,-6.83837 -16.60547,-17.61005 -19.19922,-30.04952 6.95312,-2.99283 14.16016,-5.24999 21.06641,-8.41002 0.74219,6.79657 3.17578,12.16778 8.07031,16.6821 7.18359,6.62519 16.84375,8.81547 26.11719,7.97949 7.26172,-0.65207 15.5,-3.35648 20.30078,-9.58458 3.10547,-4.02527 4.65234,-9.91898 4.15625,-15.09373 -1.67187,-17.48967 -28.73047,-23.68683 -41.55859,-28.9013 -7.26953,-2.95438 -15.23047,-6.68329 -21.25391,-12.03695 -8.17578,-7.27183 -12.375,-18.24958 -13.23828,-29.4054 -0.89453,-11.57924 1.70312,-23.05106 8.82031,-32.01743 8.28906,-10.44063 20.57031,-15.21871 33.02344,-16.31761 z"
         fill="#fcfbfb"
         id="path10" />
      <path
         d="m 197.48553,313.57457 c 9.74766,-1.04456 20.90937,1.64271 29.62891,6.27366 11.1918,5.94386 19.17773,15.44192 23.19023,28.12425 -6.19062,3.56632 -12.93203,6.09267 -19.46836,8.82885 -1.62148,-4.02945 -3.36289,-7.7985 -6.13711,-11.09646 -5.30391,-6.30501 -12.73828,-8.74442 -20.48281,-9.12437 -7.87266,-0.38581 -16.58711,1.69622 -22.47773,7.6221 -3.56484,3.58638 -5.27852,8.34899 -5.35977,13.54423 -0.29023,18.57854 26.68281,24.8104 39.38789,30.3417 9.29453,4.04659 19.80117,9.19418 26.825,17.0863 7.4625,8.38494 10.09023,18.77207 9.84258,30.0955 -0.26562,12.1427 -4.33242,22.77644 -12.61289,31.16556 -9.8582,9.98585 -24.41641,14.287 -37.77031,13.90245 -11.29258,-0.22154 -22.31758,-3.39828 -31.6957,-10.27427 -9.14609,-6.70043 -15.46914,-17.97788 -17.54297,-29.58555 6.76992,-2.80473 13.69336,-5.30015 20.30703,-8.50198 0.69961,6.77149 3.55469,13.03302 8.43398,17.46375 6.96133,6.32006 16.97773,8.32642 25.87383,7.48208 7.03945,-0.66879 14.98125,-3.32304 19.6418,-9.35469 3.13633,-4.05871 4.53945,-9.50098 4.07852,-14.71754 -1.61094,-18.24623 -27.6043,-23.74786 -40.8168,-29.14582 -7.39102,-3.01958 -15.09258,-6.77567 -21.22187,-12.2217 -8.16719,-7.2572 -12.76914,-17.62175 -13.74062,-28.85281 -1.02109,-11.80371 1.39102,-22.88888 8.6043,-32.07763 8.69687,-11.07891 20.41992,-15.8085 33.51289,-16.97762 z"
         fill="#fcfbfb"
         id="path11" />
      <path
         d="m 445.92967,318.01157 c 5.375,0.003 10.75,0.0991 16.12109,0.28716 3.66406,13.08527 9.67187,26.34778 14.55078,39.0439 11.23437,29.24154 22.97266,58.20846 33.98437,87.55408 3.92187,10.44565 8.87891,21.16299 11.71484,31.96393 -7.53906,-0.13376 -15.08203,-0.1463 -22.625,-0.0334 -4.32031,-11.7874 -8.88672,-23.37835 -12.83984,-35.3246 -16.33594,-0.14212 -32.67969,0.209 -49.01172,-0.0418 4.33203,-7.81229 8.07422,-15.7458 11.66406,-23.9719 9.28906,-0.0982 18.58984,0.0669 27.87891,0.12122 -3.13281,-6.86094 -5.73828,-14.05585 -8.4375,-21.12119 -5.03125,-12.78766 -9.32422,-26.08778 -14.85937,-38.61796 -5.76953,11.15456 -9.42187,24.15958 -13.88281,36.01721 -10.33203,27.45462 -20.57812,55.10068 -30.34375,82.78437 -7.43359,-0.10032 -14.88281,-0.008 -22.32109,-0.004 4.0125,-13.58478 9.68437,-26.68468 14.575,-39.93506 9.02734,-24.45594 17.92187,-48.99297 27.25781,-73.31557 3.33203,-8.59477 6.60156,-17.21755 9.80469,-25.8675 2.42187,-6.41578 5.08203,-12.84827 6.76953,-19.53867 z"
         fill="#fcfbfb"
         id="path12"
         style="opacity:1" />
      <path
         d="m 270.82303,318.0145 c 38.69062,-0.54632 77.43164,0.008 116.1289,-10e-4 -0.0391,6.99386 0.0762,13.9965 0.12695,20.99078 -5.44219,0.53378 -11.07617,0.27253 -16.54023,0.22697 -10.18203,-0.0853 -20.38672,-0.3578 -30.56641,-0.0706 l -0.17734,87.73758 c -0.0117,16.64866 -0.11172,33.29315 -0.29922,49.94181 l -21.45703,0.0376 0.14609,-103.32914 c 0.0773,-11.48645 -0.16055,-22.97792 0.0281,-34.46228 -5.67461,0.55635 -11.65625,0.14797 -17.36406,0.0894 l -30.11719,-0.24369 0.0914,-20.91721 z"
         fill="#fcfbfb"
         id="path13" />
    </g>
  </g>
</svg>
