<?xml version="1.0" encoding="UTF-8" standalone="no"?>
<svg
   width="747.56567"
   height="167.15878"
   version="1.1"
   id="svg14"
   xmlns="http://www.w3.org/2000/svg"
   xmlns:svg="http://www.w3.org/2000/svg">
  <defs
     id="defs14" />
  <g
     id="g13"
     transform="translate(-242.4071,-65.349739)">
    <g
       id="g15"
       transform="translate(219.01184,-247.89672)">
      <path
         id="path7"
         d="m 23.395255,317.93555 0.101563,158.8789 31.162109,0.0293 c 24.34492,0.046 44.382031,-1.03587 62.738283,-20.38477 15.47344,-17.48883 18.95078,-39.4331 18.35547,-62.86914 -0.54062,-21.27752 -5.16602,-42.08584 -20.0918,-57.19336 -18.5,-18.72526 -38.457814,-18.4004 -62.339844,-18.4414 -9.95742,-0.0162 -19.975161,-0.29123 -29.925781,-0.0195 z m 35.738281,21.13476 c 14.4878,-0.008 29.134285,1.37972 40.22461,12.44922 10.295314,10.27636 13.462884,25.33131 13.953124,39.8457 0.59922,17.7321 -0.40469,36.68265 -12.27148,50.35938 -15.360164,15.34453 -36.873049,12.62732 -56.259769,12.91992 l 0.05664,-115.40625 c 4.656445,-0.007 9.467609,-0.16515 14.296875,-0.16797 z"
         style="display:inline;fill:#ffffff" />
      <path
         d="m 656.62888,317.97938 21.15234,-0.0184 c -0.30859,22.68866 0.57812,45.49395 -0.28906,68.16088 l 72.5625,-0.004 c -0.32031,-10.35243 -0.082,-20.77593 -0.0703,-31.13547 0.0195,-12.26601 -0.12891,-24.56378 0.17969,-36.82519 6.93359,-0.0217 13.86328,-0.0823 20.79687,-0.18183 l -0.0703,158.14977 -0.25781,0.41799 c -3.69531,1.04498 -15.9375,0.2717 -20.51562,0.26752 -0.20312,-12.16778 -0.0859,-24.36482 -0.10156,-36.53678 -0.0195,-10.6212 -0.22266,-21.30929 0.23437,-31.91921 l -72.44531,-0.14295 0.008,68.5446 -20.86328,0.0293 c -0.55859,-16.46475 -0.13281,-33.12595 -0.19531,-49.6116 l -0.125,-109.19442 z"
         fill="#fcfbfb"
         id="path9" />
      <path
         d="m 578.39841,313.57792 c 9.95703,-1.36308 22.01172,1.61805 30.91016,6.37314 11.47266,6.13029 18.52734,15.57986 22.51953,28.49041 -6.26953,3.25575 -13.04687,5.24289 -19.24609,8.62947 -1.67187,-4.54484 -3.87891,-8.80419 -7.16406,-12.24636 -5.88281,-6.16582 -14.1875,-8.26832 -22.21875,-8.16591 -7.25,0.0924 -15.6875,2.43941 -20.84766,8.21691 -3.35547,3.75609 -4.86719,8.90701 -4.71094,14.05209 0.55859,18.16305 27.05078,23.48452 39.55859,28.87204 8.91016,3.83676 18.05859,8.5233 25.125,15.63252 7.52344,7.56526 11.05078,17.92731 11.26172,28.85364 0.23828,12.48545 -3.52344,23.95518 -11.71875,32.93367 -10.34375,11.32761 -24.66797,14.95161 -38.95312,15.18569 -11.08594,-0.58937 -21.32812,-3.29797 -30.82031,-9.67236 -10.19141,-6.83837 -16.60547,-17.61005 -19.19922,-30.04952 6.95312,-2.99283 14.16016,-5.24999 21.06641,-8.41002 0.74219,6.79657 3.17578,12.16778 8.07031,16.6821 7.18359,6.62519 16.84375,8.81547 26.11719,7.97949 7.26172,-0.65207 15.5,-3.35648 20.30078,-9.58458 3.10547,-4.02527 4.65234,-9.91898 4.15625,-15.09373 -1.67187,-17.48967 -28.73047,-23.68683 -41.55859,-28.9013 -7.26953,-2.95438 -15.23047,-6.68329 -21.25391,-12.03695 -8.17578,-7.27183 -12.375,-18.24958 -13.23828,-29.4054 -0.89453,-11.57924 1.70312,-23.05106 8.82031,-32.01743 8.28906,-10.44063 20.57031,-15.21871 33.02344,-16.31761 z"
         fill="#fcfbfb"
         id="path10" />
      <path
         d="m 197.48553,313.57457 c 9.74766,-1.04456 20.90937,1.64271 29.62891,6.27366 11.1918,5.94386 19.17773,15.44192 23.19023,28.12425 -6.19062,3.56632 -12.93203,6.09267 -19.46836,8.82885 -1.62148,-4.02945 -3.36289,-7.7985 -6.13711,-11.09646 -5.30391,-6.30501 -12.73828,-8.74442 -20.48281,-9.12437 -7.87266,-0.38581 -16.58711,1.69622 -22.47773,7.6221 -3.56484,3.58638 -5.27852,8.34899 -5.35977,13.54423 -0.29023,18.57854 26.68281,24.8104 39.38789,30.3417 9.29453,4.04659 19.80117,9.19418 26.825,17.0863 7.4625,8.38494 10.09023,18.77207 9.84258,30.0955 -0.26562,12.1427 -4.33242,22.77644 -12.61289,31.16556 -9.8582,9.98585 -24.41641,14.287 -37.77031,13.90245 -11.29258,-0.22154 -22.31758,-3.39828 -31.6957,-10.27427 -9.14609,-6.70043 -15.46914,-17.97788 -17.54297,-29.58555 6.76992,-2.80473 13.69336,-5.30015 20.30703,-8.50198 0.69961,6.77149 3.55469,13.03302 8.43398,17.46375 6.96133,6.32006 16.97773,8.32642 25.87383,7.48208 7.03945,-0.66879 14.98125,-3.32304 19.6418,-9.35469 3.13633,-4.05871 4.53945,-9.50098 4.07852,-14.71754 -1.61094,-18.24623 -27.6043,-23.74786 -40.8168,-29.14582 -7.39102,-3.01958 -15.09258,-6.77567 -21.22187,-12.2217 -8.16719,-7.2572 -12.76914,-17.62175 -13.74062,-28.85281 -1.02109,-11.80371 1.39102,-22.88888 8.6043,-32.07763 8.69687,-11.07891 20.41992,-15.8085 33.51289,-16.97762 z"
         fill="#fcfbfb"
         id="path11" />
      <path
         d="m 445.92967,318.01157 c 5.375,0.003 10.75,0.0991 16.12109,0.28716 3.66406,13.08527 9.67187,26.34778 14.55078,39.0439 11.23437,29.24154 22.97266,58.20846 33.98437,87.55408 3.92187,10.44565 8.87891,21.16299 11.71484,31.96393 -7.53906,-0.13376 -15.08203,-0.1463 -22.625,-0.0334 -4.32031,-11.7874 -8.88672,-23.37835 -12.83984,-35.3246 -16.33594,-0.14212 -32.67969,0.209 -49.01172,-0.0418 4.33203,-7.81229 8.07422,-15.7458 11.66406,-23.9719 9.28906,-0.0982 18.58984,0.0669 27.87891,0.12122 -3.13281,-6.86094 -5.73828,-14.05585 -8.4375,-21.12119 -5.03125,-12.78766 -9.32422,-26.08778 -14.85937,-38.61796 -5.76953,11.15456 -9.42187,24.15958 -13.88281,36.01721 -10.33203,27.45462 -20.57812,55.10068 -30.34375,82.78437 -7.43359,-0.10032 -14.88281,-0.008 -22.32109,-0.004 4.0125,-13.58478 9.68437,-26.68468 14.575,-39.93506 9.02734,-24.45594 17.92187,-48.99297 27.25781,-73.31557 3.33203,-8.59477 6.60156,-17.21755 9.80469,-25.8675 2.42187,-6.41578 5.08203,-12.84827 6.76953,-19.53867 z"
         fill="#fcfbfb"
         id="path12"
         style="opacity:1" />
      <path
         d="m 270.82303,318.0145 c 38.69062,-0.54632 77.43164,0.008 116.1289,-10e-4 -0.0391,6.99386 0.0762,13.9965 0.12695,20.99078 -5.44219,0.53378 -11.07617,0.27253 -16.54023,0.22697 -10.18203,-0.0853 -20.38672,-0.3578 -30.56641,-0.0706 l -0.17734,87.73758 c -0.0117,16.64866 -0.11172,33.29315 -0.29922,49.94181 l -21.45703,0.0376 0.14609,-103.32914 c 0.0773,-11.48645 -0.16055,-22.97792 0.0281,-34.46228 -5.67461,0.55635 -11.65625,0.14797 -17.36406,0.0894 l -30.11719,-0.24369 0.0914,-20.91721 z"
         fill="#fcfbfb"
         id="path13" />
    </g>
  </g>
</svg>
